<?xml version="1.0" encoding="iso-8859-1"?>
<!-- Generator: Adobe Illustrator 19.0.0, SVG Export Plug-In . SVG Version: 6.00 Build 0)  -->
<svg version="1.1" id="Layer_1" xmlns="http://www.w3.org/2000/svg" xmlns:xlink="http://www.w3.org/1999/xlink" x="0px" y="0px"
	 viewBox="0 0 473.931 473.931" style="enable-background:new 0 0 473.931 473.931;" xml:space="preserve">
<circle style="fill:#49A0AE;" cx="236.966" cy="236.966" r="236.966"/>
<path style="fill:#E3E4E5;" d="M303.292,92.261c-1.792-6.544-128.271-6.556-131.759,0c-3.487,6.552-6.309,9.179-6.309,55.73
	s21.017,147.934,21.017,172.787c0,24.853-11.195,102.666-9.601,106.513c1.601,3.843,24.475,8.281,61.952,8.281
	c37.485,0,56.748-4.438,59.591-8.281c2.844-3.847-9.601-87.576-9.601-106.513c0-29.586,21.025-133.341,21.025-172.787
	C309.604,108.541,305.081,98.801,303.292,92.261z"/>
<path style="fill:#F8DC62;" d="M302.529,94.73H172.293c0,0-7.068,50.895-3.128,80.208c0,22.406,19.88,122.636,19.88,145.049
	s-7.858,87.299-6.425,90.771c1.441,3.469,22.061,7.469,55.864,7.469c33.792,0,51.157-4,53.72-7.469
	c2.559-3.472-6.425-73.694-6.425-90.771c0-26.679,19.09-121.416,19.09-145.962C308.018,135.238,302.529,94.73,302.529,94.73z"/>
<path style="fill:#F8D648;" d="M302.529,94.73c0,0-121.345,312.553-119.912,316.025c1.441,3.469,22.061,7.469,55.864,7.469
	c33.792,0,51.157-4,53.72-7.469c2.559-3.472-6.425-73.694-6.425-90.771c0-26.679,19.09-121.416,19.09-145.962
	C308.018,135.238,302.529,94.73,302.529,94.73z"/>
<path style="fill:#F8E9AB;" d="M303.883,108.545c0,0-26.675,3.547-67.453,3.547c-40.785,0-64.699-2.369-64.699-2.369
	s0-7.888,0-18.54c0-16.565,130.333-18.436,130.333-0.296C303.24,95.916,303.883,108.545,303.883,108.545z"/>
<path style="fill:#DBDDDC;" d="M157.502,95.392c0,0-7.697,17.908,4.247,30.911c11.947,12.995,24.161-3.195,31.053-10.406
	c30.679-32.059,110.15-14.002,110.15-14.002c1.534-15.12-1.848-32.512-27.734-37.496c-22.084-4.262-36.25,3.996-43.921,2.997
	c-7.682-1.003-28.194-7.996-40.531-3.992C170.722,69.896,160.907,87.393,157.502,95.392z"/>
<path style="fill:#FDF3D0;" d="M157.326,93.795c0,0-7.723,17.904,4.277,30.903c12,12.999,24.277-3.195,31.206-10.402
	c30.825-32.059,110.674-14.002,110.674-14.002c1.534-15.124-1.863-32.512-27.865-37.496c-22.196-4.254-36.422,3.996-44.142,2.997
	c-7.712-1.003-28.325-7.992-40.722-3.992C170.613,68.295,160.753,85.795,157.326,93.795z"/>
<path style="fill:#515252;" d="M275.476,159.736c0,4.359,3.772,7.891-0.591,7.891l-38.506-1.137l-38.806,1.141
	c-4.355,0-0.591-3.532-0.591-7.891l0,0c0-4.355-3.764-7.888,0.591-7.888c0,0,25.19-1.137,39.105-1.137
	c13.901,0,38.207,1.137,38.207,1.137C279.248,151.848,275.476,155.38,275.476,159.736L275.476,159.736z"/>
<path style="fill:#FFFFFF;" d="M274.885,168.099h-0.015l-38.506-1.138l-38.776,1.138c-1.194,0-1.923-0.247-2.301-0.782
	c-0.569-0.801-0.183-1.938,0.311-3.371c0.43-1.253,0.917-2.672,0.917-4.206c0-1.53-0.486-2.952-0.917-4.202
	c-0.494-1.437-0.879-2.574-0.311-3.371c0.382-0.535,1.108-0.782,2.286-0.782c0.232-0.011,25.339-1.137,39.105-1.137
	c13.751,0,37.983,1.126,38.23,1.137h0.004c1.16,0,1.886,0.251,2.264,0.782c0.569,0.801,0.183,1.934-0.314,3.371
	c-0.427,1.25-0.917,2.672-0.917,4.202c0,1.534,0.49,2.952,0.917,4.206c0.498,1.437,0.883,2.574,0.314,3.371
	C276.793,167.848,276.063,168.099,274.885,168.099z M236.678,151.178c-13.747,0-38.832,1.126-39.083,1.137
	c-0.838,0-1.366,0.135-1.549,0.389c-0.288,0.408,0.064,1.437,0.434,2.526c0.43,1.253,0.969,2.818,0.969,4.505
	c0,1.688-0.539,3.252-0.969,4.509c-0.374,1.089-0.722,2.118-0.434,2.526c0.183,0.254,0.711,0.389,1.527,0.389l38.791-1.137
	l38.529,1.137c0.816,0,1.34-0.138,1.523-0.389c0.288-0.408-0.064-1.437-0.438-2.526c-0.43-1.257-0.969-2.821-0.969-4.509
	c0-1.688,0.539-3.252,0.969-4.505c0.378-1.089,0.726-2.118,0.438-2.526c-0.183-0.254-0.711-0.389-1.53-0.389
	C274.619,152.305,250.406,151.178,236.678,151.178z"/>
<polygon style="fill:#D54027;" points="236.824,130.116 239.622,135.774 245.864,136.679 241.34,141.087 242.406,147.306 
	236.824,144.368 231.241,147.306 232.307,141.087 227.783,136.679 234.032,135.774 "/>
<path style="fill:#1DA049;" d="M212.558,180.136c-1.343,0-2.499-1.01-2.645-2.376c-0.161-1.467,0.891-2.78,2.354-2.945
	c0.535-0.06,13.265-1.459,23.962-1.459c10.69,0,23.423,1.399,23.955,1.459c1.471,0.165,2.522,1.482,2.361,2.945
	c-0.161,1.463-1.463,2.503-2.952,2.357c-0.123-0.015-12.98-1.433-23.364-1.433c-10.406,0-23.248,1.418-23.371,1.433
	C212.756,180.128,212.655,180.136,212.558,180.136z"/>
<path style="fill:#FFFFFF;" d="M206.313,163.077c-1.703,0-3.158-1.205-3.353-2.844c-0.198-1.747,1.126-3.326,2.982-3.517
	c0.674-0.075,20.149-0.827,30.293-0.827c10.136,0,29.612,0.752,30.286,0.827c1.856,0.195,3.188,1.774,2.982,3.517
	c-0.206,1.755-1.841,2.993-3.727,2.821c-0.161-0.019-19.689-0.782-29.541-0.782c-9.867,0-29.388,0.763-29.545,0.782
	C206.56,163.07,206.429,163.077,206.313,163.077z"/>
<g>
</g>
<g>
</g>
<g>
</g>
<g>
</g>
<g>
</g>
<g>
</g>
<g>
</g>
<g>
</g>
<g>
</g>
<g>
</g>
<g>
</g>
<g>
</g>
<g>
</g>
<g>
</g>
<g>
</g>
</svg>
